<svg id="Camada_1" data-name="Camada 1" xmlns="http://www.w3.org/2000/svg" viewBox="0 0 200 72.1"><defs><style>.cls-1{fill:#fff;}.cls-2{fill:#addfea;}</style></defs><path class="cls-1" d="M41.37,15a1.45,1.45,0,0,0,.22.47l2.89,5,1.58,2.74c.07.13.14.26.2.4s0,.07,0,.11l-.16,0c-.61,0-5.5,0-5.86,0-.15-.07-.2-.23-.27-.35l-2.09-3.8L36.1,16.38l-.28-.49-.24,0H32.65a.83.83,0,0,0-.22,0,.18.18,0,0,0-.08.07.51.51,0,0,0,0,.17c0,.17,0,.34,0,.51v6.42c0,.78.06.7-.69.7H26.94a.21.21,0,0,1-.16-.14c0-.05,0-.11,0-.16V2.53c0-.17,0-.34,0-.51s.09-.23.25-.23H37.74A14.62,14.62,0,0,1,40.21,2a8.25,8.25,0,0,1,1.93.58A5.79,5.79,0,0,1,45.49,6.3a8.17,8.17,0,0,1,.36,3.18,5.94,5.94,0,0,1-3.61,5.12c-.22.1-.46.17-.69.26ZM32.31,8.8h0v2.31c0,.15,0,.3,0,.45a.19.19,0,0,0,.2.22h4.9a3.82,3.82,0,0,0,.95-.13,2.36,2.36,0,0,0,1.81-1.74,3.9,3.9,0,0,0,0-2.27A2.3,2.3,0,0,0,38.7,6.11a2.81,2.81,0,0,0-.82-.2c-.26,0-.52,0-.79,0H32.64a.83.83,0,0,0-.22,0,.16.16,0,0,0-.08.08c0,.13,0,.26,0,.39Z"/><path class="cls-1" d="M124.4,24.38a13.31,13.31,0,0,1-4-.58,9.86,9.86,0,0,1-6.26-5.69,12.7,12.7,0,0,1-.93-3.53,15.51,15.51,0,0,1-.08-2.81,12.77,12.77,0,0,1,1.11-4.58,9.87,9.87,0,0,1,4.56-4.81,10.83,10.83,0,0,1,2.87-1,14.4,14.4,0,0,1,3.82-.19,11,11,0,0,1,3.44.79,9.84,9.84,0,0,1,5.17,4.73,12.51,12.51,0,0,1,1.14,3.47,15,15,0,0,1,.19,3.48,12.6,12.6,0,0,1-1.12,4.68,9.81,9.81,0,0,1-4.73,4.88,10.93,10.93,0,0,1-3.16,1A19.46,19.46,0,0,1,124.4,24.38Zm5.85-11.61a8.9,8.9,0,0,0-.24-2.12,7,7,0,0,0-.91-2.24A5.32,5.32,0,0,0,126,6.07a6.46,6.46,0,0,0-2.9-.12,5.35,5.35,0,0,0-3.63,2.46,6.86,6.86,0,0,0-.8,1.79,9.49,9.49,0,0,0-.07,4.85,6.41,6.41,0,0,0,1.06,2.35,5.24,5.24,0,0,0,3,2.07,6.34,6.34,0,0,0,2.74.12A5.31,5.31,0,0,0,129,17.27a6.41,6.41,0,0,0,.7-1.35A9.16,9.16,0,0,0,130.25,12.77Z"/><path class="cls-1" d="M135.45,39.29a13.87,13.87,0,0,1-.79,4.85,10.45,10.45,0,0,1-2.08,3.52,9.9,9.9,0,0,1-4.8,2.92,13,13,0,0,1-3.28.46,13.51,13.51,0,0,1-3.3-.35,9.93,9.93,0,0,1-5.46-3.28,10.87,10.87,0,0,1-2.06-3.85,13.37,13.37,0,0,1-.58-3.72,16.35,16.35,0,0,1,.12-2.42,12.11,12.11,0,0,1,1.74-4.9,9.74,9.74,0,0,1,5.5-4.15,12,12,0,0,1,2.43-.48,15.48,15.48,0,0,1,1.8-.07,12.63,12.63,0,0,1,4,.77A9.79,9.79,0,0,1,134,33.2a11.75,11.75,0,0,1,1.22,3.5A13.62,13.62,0,0,1,135.45,39.29Zm-17.15.22a8.16,8.16,0,0,0,.23,2,7,7,0,0,0,.9,2.23A5.26,5.26,0,0,0,122.24,46a6.4,6.4,0,0,0,3.39.18,5.2,5.2,0,0,0,3.14-1.94A6.49,6.49,0,0,0,129.91,42a9.51,9.51,0,0,0,.08-4.74,6.66,6.66,0,0,0-1-2.36,5.27,5.27,0,0,0-3-2.11,6.52,6.52,0,0,0-3-.09,5.22,5.22,0,0,0-3,1.78,6.24,6.24,0,0,0-1.17,2.11A8.93,8.93,0,0,0,118.3,39.51Z"/><path class="cls-1" d="M50.24,12.75v-10c0-.14,0-.27,0-.4,0-.6,0-.59.59-.59H66.34a.22.22,0,0,1,.2.23V5.79c0,.21-.05.25-.28.26H55.94a.2.2,0,0,0-.14.15c0,.06,0,.12,0,.17V9.71a1.64,1.64,0,0,0,0,.22.15.15,0,0,0,.11.12l.34,0h8.85l.56,0a.15.15,0,0,1,.15.14,1.79,1.79,0,0,1,0,.23V14a.9.9,0,0,1,0,.23.17.17,0,0,1-.12.11l-.16,0h-9l-.61,0a.19.19,0,0,0-.16.14c0,.1,0,.19,0,.28v4.29c0,.11,0,.22,0,.33a.18.18,0,0,0,.08.09.44.44,0,0,0,.16,0H66.71c.84,0,.76-.08.76.75,0,1,0,1.95,0,2.93a3.39,3.39,0,0,1,0,.45.2.2,0,0,1-.11.11.47.47,0,0,1-.17,0H50.43a.17.17,0,0,1-.17-.18c0-.21,0-.41,0-.62Q50.24,17.85,50.24,12.75Z"/><path class="cls-2" d="M73.48,37.66l-.27-.41a6.87,6.87,0,0,1-1.12-3.15,5.27,5.27,0,0,1,1.48-4.23,6.16,6.16,0,0,1,2.08-1.42,7.72,7.72,0,0,1,2.12-.56,10.2,10.2,0,0,1,1.46-.07,7.92,7.92,0,0,1,2.26.42,5,5,0,0,1,1.11.55A7.3,7.3,0,0,1,85,31.38a1.89,1.89,0,0,1,.09.21.17.17,0,0,1,0,.1l-.22.17L82,33.57l-.2.1a.14.14,0,0,1-.15,0l-.24-.38a3.66,3.66,0,0,0-.61-.81,2.39,2.39,0,0,0-1.71-.73,2.59,2.59,0,0,0-1,.16,2,2,0,0,0-1.19,1.28,2.16,2.16,0,0,0,0,1.33,3.37,3.37,0,0,0,.28.61A7.66,7.66,0,0,0,78,36.2L83,42a.81.81,0,0,0,.16.16.11.11,0,0,0,.11,0,3.57,3.57,0,0,0,.27-.28l2.39-2.71a2.61,2.61,0,0,1,.24-.23.09.09,0,0,1,.1,0,.76.76,0,0,1,.19.12l2.81,2.44.15.18c-.21.29-.45.53-.67.78s-.45.51-.67.76l-.67.76-.68.76c-.22.25-.45.5-.65.74a.43.43,0,0,0,.16.31l1.64,1.94c.64.74,1.27,1.48,1.9,2.23a2.75,2.75,0,0,1,.22.26.18.18,0,0,1,0,.1.14.14,0,0,1-.08.07l-.22,0H84.64a1.37,1.37,0,0,1-.28,0,.28.28,0,0,1-.15-.06,2.73,2.73,0,0,1-.23-.25l-.88-1-.23-.26a.19.19,0,0,0-.25,0l-.36.27a11.32,11.32,0,0,1-1.62,1,8.18,8.18,0,0,1-2.78.86A11.58,11.58,0,0,1,76,51a8.57,8.57,0,0,1-3.26-.78,6.47,6.47,0,0,1-2.16-1.61,5.71,5.71,0,0,1-1.36-3.16,7.26,7.26,0,0,1,2.2-6.14,10.92,10.92,0,0,1,1.82-1.43C73.33,37.85,73.44,37.8,73.48,37.66ZM80,45.45c-.1-.13-.19-.25-.29-.36L76.25,41l-.15-.17a.15.15,0,0,0-.2,0A5.65,5.65,0,0,0,74.66,42a3.43,3.43,0,0,0-.78,2.35,2.45,2.45,0,0,0,1.58,2.27,3.3,3.3,0,0,0,.82.21,3.84,3.84,0,0,0,2.55-.45,6.49,6.49,0,0,0,1.06-.74A1.22,1.22,0,0,0,80,45.45Z"/><path class="cls-1" d="M16.63,20.36a1.81,1.81,0,0,0-.23,0H9.13l-.5,0a.19.19,0,0,0-.18.11c0,.13-.09.25-.13.37-.26.79-.51,1.58-.77,2.36,0,.14-.09.29-.14.43a.23.23,0,0,1-.22.15H1.61a.12.12,0,0,1-.09-.16c.05-.16.11-.32.17-.48,1.07-2.89,2.15-5.77,3.22-8.66q2.24-6,4.46-12c.3-.79.12-.68,1-.69h4.79a.24.24,0,0,1,.26.17c.06.13.11.28.17.42L23.5,23.17a1.67,1.67,0,0,1,.15.48.12.12,0,0,1-.06.08.83.83,0,0,1-.22,0H17.9a.21.21,0,0,1-.17-.13c-.05-.14-.1-.29-.14-.43-.27-.8-.53-1.61-.79-2.41A1.48,1.48,0,0,0,16.63,20.36ZM9.85,16.15a.71.71,0,0,0,.45.08H15a.47.47,0,0,0,.17,0,.14.14,0,0,0,.05-.08,2.7,2.7,0,0,0-.08-.39L12.73,7.65a1.05,1.05,0,0,0-.15-.36c-.13.13-.13.13-.53,1.43-.14.49-.29,1-.44,1.46l-.45,1.5-.45,1.51c-.15.49-.31,1-.44,1.46A13.39,13.39,0,0,0,9.85,16.15Z"/><path class="cls-1" d="M70.26,19.64l2.29-2.53q4.8-5.31,9.61-10.61l.25-.3a.22.22,0,0,0,0-.11l0,0h-11a.17.17,0,0,1-.14-.15,2.64,2.64,0,0,1,0-.28V2.23a2,2,0,0,1,0-.34s0,0,.07-.07l.11,0H89.07c.17,0,.24.08.24.24a2.81,2.81,0,0,1,0,.29V5.7c0,.13,0,.26,0,.4l-.52.59L79.51,16.92l-2,2.17-.21.26s0,.12.07.13l.16,0H88.5c.84,0,.77-.08.77.75v3.1c0,.39,0,.41-.42.41H70.42c-.1,0-.16-.08-.17-.19V20C70.25,19.86,70.25,19.77,70.26,19.64Z"/><path class="cls-1" d="M91.82,19.65l.38-.43L103.59,6.64c.13-.14.25-.28.37-.43a.09.09,0,0,0,0-.1.11.11,0,0,0-.08-.05H93.45a5.25,5.25,0,0,1-.56,0A.11.11,0,0,1,92.81,6a.83.83,0,0,1,0-.22V2.12a1,1,0,0,1,0-.17.19.19,0,0,1,.14-.15h17.2l.56,0a.16.16,0,0,1,.15.14.88.88,0,0,1,0,.16V5.94s0,.11,0,.19l-.47.53L99.23,18.94l-.35.43s0,.07,0,.09a.2.2,0,0,0,.11,0h11l.56,0a.2.2,0,0,1,.18.19c0,.11,0,.22,0,.33,0,1.08,0,2.15,0,3.22a2.56,2.56,0,0,1,0,.39s0,.06-.07.07a.47.47,0,0,1-.16,0h-18l-.57,0a.16.16,0,0,1-.13-.15,2.64,2.64,0,0,1,0-.28V19.93C91.8,19.85,91.81,19.78,91.82,19.65Z"/><path class="cls-1" d="M111.39,45.47c0,.06,0,.12,0,.17a9.33,9.33,0,0,1-3.94,4.21,9.12,9.12,0,0,1-2.69,1A12.82,12.82,0,0,1,101,51a12,12,0,0,1-3-.69,9.72,9.72,0,0,1-5.29-4.66,11.91,11.91,0,0,1-1.27-3.9,14.58,14.58,0,0,1-.17-2.47,14,14,0,0,1,.85-4.74,10.31,10.31,0,0,1,2.65-4,9.66,9.66,0,0,1,4.43-2.34,12.68,12.68,0,0,1,3.25-.33,11,11,0,0,1,3.84.79,9,9,0,0,1,3.65,2.75,10.35,10.35,0,0,1,1.28,2,.44.44,0,0,1,.06.16.13.13,0,0,1,0,.1,1.18,1.18,0,0,1-.19.11l-3.73,1.86a1,1,0,0,1-.3.1c-.13-.06-.16-.18-.21-.28a6.32,6.32,0,0,0-.65-1.05,4.65,4.65,0,0,0-3-1.82h0a5.63,5.63,0,0,0-3.94.83,5.41,5.41,0,0,0-1.66,1.74,7.5,7.5,0,0,0-.91,2.41,10.34,10.34,0,0,0-.1,3.09A7.6,7.6,0,0,0,97.21,43a5.76,5.76,0,0,0,1,1.51,5.28,5.28,0,0,0,2.87,1.66,6.15,6.15,0,0,0,2.3.07A4.59,4.59,0,0,0,106,44.94a5.23,5.23,0,0,0,.8-1c.08-.13.16-.26.23-.39a.18.18,0,0,1,.28-.07l.11,0,3.71,1.78A1,1,0,0,1,111.39,45.47Z"/></svg>