<svg id="Camada_1" data-name="Camada 1" xmlns="http://www.w3.org/2000/svg" viewBox="0 0 200 72.1"><defs><style>.cls-1{fill:#fff;fill-rule:evenodd;}</style></defs><path class="cls-1" d="M33.25,26.19l-1.34.23.35-2.68-.35-.53.35-3,3.44,1.4-2.45,4.61Zm5.48,8h0a19.34,19.34,0,0,0,3.73-10.14h0l-2.68-.94L38.5,27.53l-4.26,6.7Zm-1.57-6.94h0L39,22.92l-2.68-1.11-2.51,7.06-1.75,1.46-2.21,3.9h2.21l3.39-5.48,1.69-1.46ZM31.38,13.65h0l10.32,2.8h0c-1-4.84-7.28-14.17-19-14.17-12.19,0-20.29,10-20.29,19.42a20.34,20.34,0,0,0,4,12.59c1.28-2.91,3.73-8.86,3.73-8.86h0l1.05-.59,1.52-4.19.87-.41L10.1,30.79,7.65,34.23h1l4.14-4.95,2-7.7.75,1.05h0c-.29,3.56-.17,2.68-.4,4.66h0l-5,6.94h1.17l4.84-3.67.29.12-1.81,3.55h5.36l8.22-5.48L30.8,19.6l6.07-.29-2.34-1.52L21.24,15.57h0c-2.92-3.09-3-3.26-3-3.26h0l3.5.29L19.2,10.27V7.88l3.26.58,8.92,5.19ZM28.64,34.23H25.85L31,27.76l.52,1-2.92,5.48Zm-6.06,8.05A19.6,19.6,0,0,1,7.19,35.17H37.92c-3.56,4.6-9.68,7.11-15.34,7.11ZM22.7,3.56A18.69,18.69,0,0,0,3.81,21.7a17.8,17.8,0,0,0,2.56,9.91C8.06,27.06,11.44,18,11.44,18a9.91,9.91,0,0,1,1.58-.7h0l2.27-5.77,1.46-.76L18.56,7l4,.64,8.05,4.49,9,2.5h0a18.31,18.31,0,0,0-16.91-11Z"/><path class="cls-1" d="M168.88,35v-.87h.18a1.79,1.79,0,0,0,1-.29c.24-.21.38-.41.38-1.46h0V18.12h0a2.65,2.65,0,0,0-.44-1.74A1.67,1.67,0,0,0,169,16h-.52v-.87L174,14.7V32.41h0c0,1,.15,1.25.38,1.46a2.33,2.33,0,0,0,1.31.29h.23V35ZM151.25,19.29a2.2,2.2,0,0,1-2.2-2.21,2.21,2.21,0,0,1,4.41,0,2.21,2.21,0,0,1-2.21,2.21ZM163.54,35s0-2.21-.06-2.21c-.23,1.13-2,2.61-3.92,2.61-3.05,0-4-2.14-4-3.51,0-3.22,3.23-4.3,7.67-5.17h0V24.46h0c0-1.57-.67-2.5-2.73-2.5a3.27,3.27,0,0,0-2.76,1.33v.06a1,1,0,0,1,.84-.35,1.55,1.55,0,0,1,1.72,1.6,1.88,1.88,0,0,1-1.95,1.66,2,2,0,0,1-2-2c0-1.91,2.23-3.22,5.11-3.22,2.55,0,5.34.73,5.34,4.7h0v6.68h0c0,1,.15,1.31.38,1.49a1.61,1.61,0,0,0,1,.29h.29V35h-4.88Zm-15.8,0v-.87h.44a1.27,1.27,0,0,0,1.13-.41,4.38,4.38,0,0,0,.26-2.06h0V24.4h0c0-.58.06-1.4-.44-1.8a2.17,2.17,0,0,0-1.36-.29h-.29v-.9h5.66V31.69h0a4,4,0,0,0,.26,2.06,1.22,1.22,0,0,0,1.11.41h.55V35ZM147,33.72h0a9.8,9.8,0,0,0,.5-3.75H146.4c0,1.05,0,2.62-.52,3.4a1,1,0,0,1-.93.53c-1,0-1.13-.91-1.13-1.83h0V22.31h2.67v-.9h-2.73V15.13h-.9c0,2.06-1.68,6.28-4.85,6.28h-.23v.9h2.44v9.32h0c0,1.68.49,3.8,3.42,3.8,1.66,0,2.76-.49,3.34-1.71ZM133.07,35V24.89h0c0-2-1-2.15-1.74-2.15a2,2,0,0,0-1.63,1,6.51,6.51,0,0,0-.58,2.93h0v5h0c0,1.16-.06,1.74.21,2s.55.41,1.3.41H131V35h-7.41v-.87h.44a1.66,1.66,0,0,0,1.28-.41c.26-.29.2-.87.2-2h0v-7h0a4.36,4.36,0,0,0-.23-2,1.32,1.32,0,0,0-1.14-.4h-.55v-.87h5.17l.06,2.12h0A3.94,3.94,0,0,1,132.72,21c3.14,0,3.9,1.71,3.9,4.56h0v6.19h0c0,1.13,0,1.62.23,2a1.28,1.28,0,0,0,1.13.41h.55V35Zm-18.73-7.26a14.62,14.62,0,0,0,.2,3.08c.29,1.65,1,3.39,2.94,3.39a4,4,0,0,0,4-3.86h1.14A5.49,5.49,0,0,1,117,35.43c-4.35,0-6.5-3.07-6.5-7.23s2.81-7.2,6.39-7.2c4.24,0,5.89,3.08,5.89,6.77h-8.42ZM104.73,35l-.06-2.12h0a4,4,0,0,1-3.81,2.52c-4.3,0-5.43-3.92-5.43-7.23s2-7.2,5.9-7.2c1.94,0,2.73.78,3,1.36h0V18.12h0a2.22,2.22,0,0,0-.44-1.74,1.79,1.79,0,0,0-1.33-.38h-.27v-.87l5.58-.43V32.41h0c0,1,.15,1.25.38,1.46a2.27,2.27,0,0,0,1.28.29h.37V35ZM89.62,35l-.06-2.12h0s0,.08,0,0a4.12,4.12,0,0,1-3.81,2.52c-3.28,0-4-1.91-4-4.44h0V25.12h0a8,8,0,0,0-.17-2.52c-.09-.15-.23-.32-1-.32h-.2v-.87h4.93v10h0c0,2.18,1.2,2.23,1.78,2.23a2.36,2.36,0,0,0,2.06-2,9.06,9.06,0,0,0,.17-2.18h0V25.12h0a5.67,5.67,0,0,0-.23-2.47c-.23-.26-.55-.37-1.45-.37h-.29v-.87h5.52V31.75h0a3.87,3.87,0,0,0,.32,2,1.15,1.15,0,0,0,1.07.41h.52V35H89.62ZM77.89,24.43a1.52,1.52,0,0,1-1.63-1.31,1.61,1.61,0,0,1,.15-.76h0c-1.4,1.17-1.72,5.58-1.72,7.29h0v2.1h0a4,4,0,0,0,.27,2c.26.38.93.41,1.3.41h1.31V35H68.36v-.87h.87c.93,0,1.4-.15,1.63-.53a4.83,4.83,0,0,0,.26-1.91h0V26.4h0a13.09,13.09,0,0,0-.26-3.51c-.23-.5-.58-.61-1.37-.61h-.31v-.87h4.93l.15,3.48h0c.14-1.68,1.13-3.89,3.4-3.89,1.22,0,2,.58,2,1.71a1.68,1.68,0,0,1-1.77,1.72ZM61,26.4h0c4.12,0,7.58-1.6,7.58-5.6,0-4.22-3.52-5.67-7.58-5.67H53V16h.61a3.54,3.54,0,0,1,1.6.21c.46.23.61.87.61,1.8h0V32.33h0a1.88,1.88,0,0,1-.44,1.48,2.74,2.74,0,0,1-1.57.35H53V35h9.2v-.87h-.72a2.17,2.17,0,0,1-1.57-.41,2.07,2.07,0,0,1-.35-1.42h0V26.4Zm102.26,1.22c-2.59.5-4,1.16-4,3.81,0,1.54.79,2.32,1.66,2.32a2,2,0,0,0,1.91-1.25,6.67,6.67,0,0,0,.44-2.7h0V27.62Zm-46.38-5.87c-2.38,0-2.41,3.72-2.47,5.09h4.76c0-1.48-.09-5.09-2.29-5.09Zm-12.49,4.94c0-1.68-.23-4.56-2.41-4.56-2.47,0-2.5,4.13-2.5,6.07,0,1.69.12,5.67,2.41,5.67a2.15,2.15,0,0,0,2-1.37,7.41,7.41,0,0,0,.55-3h0V26.69ZM61,16h0c3.22,0,3.8,2.44,3.8,4.8s-.58,4.64-3.8,4.64h-1.4V16Z"/></svg>