<svg id="Camada_1" data-name="Camada 1" xmlns="http://www.w3.org/2000/svg" xmlns:xlink="http://www.w3.org/1999/xlink" viewBox="0 0 200 57.06"><defs><style>.cls-1{fill:#fff;}.cls-2{fill:url(#Gradiente_sem_nome_4);}.cls-3{fill:url(#Gradiente_sem_nome_4-2);}.cls-4{fill:url(#Gradiente_sem_nome_4-3);}.cls-5{fill:url(#Gradiente_sem_nome_4-4);}</style><linearGradient id="Gradiente_sem_nome_4" x1="117.45" y1="61.84" x2="117.45" y2="43.03" gradientTransform="matrix(1, 0, 0, -1, 0, 71.89)" gradientUnits="userSpaceOnUse"><stop offset="0" stop-color="#ff00f4"/><stop offset="1" stop-color="#821aff"/></linearGradient><linearGradient id="Gradiente_sem_nome_4-2" x1="157.2" y1="61.84" x2="157.2" y2="43.03" xlink:href="#Gradiente_sem_nome_4"/><linearGradient id="Gradiente_sem_nome_4-3" x1="138.02" y1="61.84" x2="138.02" y2="43.03" xlink:href="#Gradiente_sem_nome_4"/><linearGradient id="Gradiente_sem_nome_4-4" x1="22.88" y1="63.97" x2="22.88" y2="40.59" xlink:href="#Gradiente_sem_nome_4"/></defs><path class="cls-1" d="M47.66,10.14c-3,0-5.41.86-7.13,3.69l-.38-3.48H37.53V36.18h3.18V25.84a7.74,7.74,0,0,0,6.45,3.54c4.4,0,8.35-3.58,8.35-9.89S50.7,10.14,47.66,10.14Zm-1.1,16.3c-3.28,0-5.94-3-5.94-6.73S43.28,13,46.56,13s5.95,3,5.95,6.73S49.84,26.44,46.56,26.44Z"/><rect class="cls-1" x="58.47" y="1.6" width="3.13" height="27.41"/><rect class="cls-1" x="65.84" y="10.31" width="3.13" height="18.7"/><circle class="cls-1" cx="67.37" cy="4.28" r="1.99"/><polygon class="cls-1" points="32.17 10.35 25.89 19.75 32.23 29.02 35.69 29.02 29.34 19.61 35.43 10.35 32.17 10.35"/><path class="cls-1" d="M86.31,24.85a6.94,6.94,0,0,1-4.44,1.59,6.73,6.73,0,1,1,0-13.46,6.92,6.92,0,0,1,4.44,1.59V11.25a9.56,9.56,0,0,0-4.86-1.32,9.82,9.82,0,0,0,0,19.64,9.54,9.54,0,0,0,4.86-1.32Z"/><path class="cls-1" d="M103.17,10.35l-.26,3.48c-1.55-2.05-3.43-3.78-6.71-3.78-4.68,0-8.47,4.32-8.47,9.63s3.79,9.63,8.47,9.63a8.12,8.12,0,0,0,6.64-3.66l.28,3.36h2.54V10.35ZM96.84,26.49c-3.26,0-5.89-3-5.89-6.78s2.64-6.78,5.89-6.78,5.9,3,5.9,6.78S100.1,26.49,96.84,26.49Z"/><path class="cls-2" d="M123.92,10.35l-.25,3.48c-1.56-2.05-3.43-3.78-6.72-3.78-4.67,0-8.47,4.32-8.47,9.63s3.8,9.63,8.47,9.63a8.1,8.1,0,0,0,6.64-3.66l.29,3.36h2.53V10.35ZM117.6,26.49c-3.26,0-5.9-3-5.9-6.78s2.64-6.78,5.9-6.78,5.9,3,5.9,6.78S120.85,26.49,117.6,26.49Z"/><path class="cls-3" d="M163.68,10.35l-.26,3.48c-1.55-2.05-3.43-3.78-6.71-3.78-4.68,0-8.47,4.32-8.47,9.63s3.79,9.63,8.47,9.63a8.11,8.11,0,0,0,6.64-3.66l.28,3.36h2.54V10.35Zm-6.33,16.14c-3.26,0-5.89-3-5.89-6.78s2.64-6.78,5.89-6.78,5.9,3,5.9,6.77S160.61,26.49,157.35,26.49Z"/><path class="cls-4" d="M130.49,10.35V29h3.08V17.45A4.43,4.43,0,0,1,138,13.11c3.54,0,4.57,2.22,4.57,4.22V29h3V16.36c0-1.09-.73-6.31-6.27-6.31a7.93,7.93,0,0,0-6.11,3.32l-.29-3Z"/><path class="cls-5" d="M28.87,19.82,21,31.18a.27.27,0,0,1-.21.12H17.08a.26.26,0,0,1-.22-.41l7.46-11.12a.27.27,0,0,0,0-.3L16.88,8.67a.48.48,0,0,1,.38-.75h3.53l8.09,11.42A.38.38,0,0,1,28.87,19.82Z"/><path class="cls-1" d="M10.23,10.14c-8,0-9,7.35-9,9.56,0,6.39,4.16,9.66,9.11,9.66s6.7-2,6.7-2l.06-3.22a10.2,10.2,0,0,1-6.18,2.38A6.34,6.34,0,0,1,4.2,20.8H18.1C18.39,18.5,18,10.14,10.23,10.14ZM4.34,18.35a5.91,5.91,0,0,1,5.78-5.46c2.9,0,4.87,2.42,5,5.46Z"/></svg>