<svg id="Camada_1" data-name="Camada 1" xmlns="http://www.w3.org/2000/svg" viewBox="0 0 158.47 101.41"><defs><style>.cls-1{fill:#ee0051;}.cls-2{fill:#fff;}</style></defs><g id="MLu5hX"><path class="cls-1" d="M49.05,77.86V72.14c0-.68,0-.68.67-.69h2.22c.44,0,.44,0,.44.46,0,.2,0,.41,0,.61a1.47,1.47,0,0,0,.08.3l.3-.13a.38.38,0,0,0,.13-.09,6.05,6.05,0,0,1,3.77-1.45,7.42,7.42,0,0,1,2.3.2,4.33,4.33,0,0,1,2.56,1.56c.31.4.32.4.72,0a7.3,7.3,0,0,1,6.67-1.61A4.34,4.34,0,0,1,72.4,74.8a10.2,10.2,0,0,1,.23,2v6.89c0,.56,0,.57-.58.57H69.61c-.54,0-.54,0-.54-.55V77.26a4.57,4.57,0,0,0-.16-1,2.58,2.58,0,0,0-2.25-2.1,4.73,4.73,0,0,0-3.84,1.06.69.69,0,0,0-.27.58l.05,7.47v.56c0,.18-.07.39-.34.38H59.48c-.24,0-.35-.1-.35-.33V77.27A5,5,0,0,0,59,76.5a2.68,2.68,0,0,0-2.61-2.35,4.46,4.46,0,0,0-3.56,1.28.82.82,0,0,0-.23.7v7.66c0,.52,0,.45-.44.45H49.59c-.47,0-.48,0-.48-.52V77.86Z" transform="translate(-0.79 -1.39)"/><path class="cls-1" d="M75.8,80.46v-8.7c0-.21.08-.31.31-.31h2.77c.26,0,.33.11.33.34s0,.54,0,.82.08.27.28.13.56-.46.89-.66a5.85,5.85,0,0,1,2.45-.89A7.88,7.88,0,0,1,86,71.3a5.49,5.49,0,0,1,3.92,3.81,8,8,0,0,1-.16,5.68,5.86,5.86,0,0,1-5.65,3.74,10.82,10.82,0,0,1-2.2-.17,4.36,4.36,0,0,1-2.15-1l-.31-.18a1.62,1.62,0,0,0-.09.38c0,1.72,0,3.44,0,5.22v.41c0,.23-.09.31-.3.31h-2.9c-.25,0-.32-.12-.32-.34s0-.52,0-.78V80.46Zm3.57-2.67v1.85a1,1,0,0,0,.18.55,3.55,3.55,0,0,0,1.7,1.18,5.3,5.3,0,0,0,2.34.2,3.11,3.11,0,0,0,2.85-2.31,4.67,4.67,0,0,0-.24-3.5,2.75,2.75,0,0,0-1.09-1.2,4.85,4.85,0,0,0-5.53.75,1,1,0,0,0-.28.7c0,.56,0,1.17,0,1.74Z" transform="translate(-0.79 -1.39)"/><path class="cls-1" d="M139.31,84.57a8.47,8.47,0,0,1-5.12-1.51,5.85,5.85,0,0,1-2.25-3.52,7.07,7.07,0,0,1,.47-4.77A5.51,5.51,0,0,1,135,72.1a9.13,9.13,0,0,1,8.33-.06,5.84,5.84,0,0,1,3.32,5.14,6.89,6.89,0,0,1-.71,3.89,6.27,6.27,0,0,1-3.85,3.06,6.71,6.71,0,0,1-1.34.32C140.21,84.53,139.64,84.54,139.31,84.57Zm-.22-3c2.27,0,3.56-1.06,3.92-3.09a4.65,4.65,0,0,0-.12-1.93,3.09,3.09,0,0,0-1.79-2.14,4.42,4.42,0,0,0-3.73,0,3,3,0,0,0-1.78,2,5,5,0,0,0-.17,2,3.29,3.29,0,0,0,1.84,2.73A4.25,4.25,0,0,0,139.09,81.57Z" transform="translate(-0.79 -1.39)"/><path class="cls-1" d="M104.75,80v3.65c0,.53,0,.55-.56.55h-2.26c-.43,0-.46,0-.47-.48a3.38,3.38,0,0,0,0-.45,2.74,2.74,0,0,0-.09-.39,2.9,2.9,0,0,0-.33.2,9.68,9.68,0,0,1-.82.61,5.74,5.74,0,0,1-2.48.79,8.18,8.18,0,0,1-3.26-.28,3.64,3.64,0,0,1-2.33-4.11,3.3,3.3,0,0,1,1.78-2.5,8.11,8.11,0,0,1,3.86-.89c1,0,2,.06,3,.09.5,0,.53,0,.46-.52A2.31,2.31,0,0,0,99.12,74a7,7,0,0,0-5.1,1.1l-.13.09c-.41.31-.41.31-.65-.14s-.49-1-.74-1.52-.18-.41.17-.68a9.05,9.05,0,0,1,4.53-1.69,10.45,10.45,0,0,1,3.78.18,4.68,4.68,0,0,1,3.65,4.05c.1.73.1,1.47.13,2.2s0,1.65,0,2.46ZM99.33,79H98a3.94,3.94,0,0,0-1.84.45,1.11,1.11,0,0,0-.54.89,1.25,1.25,0,0,0,1,1.39,4.87,4.87,0,0,0,3.83-.58,1.55,1.55,0,0,0,.89-1.71c-.06-.38-.07-.44-.46-.47S99.85,79,99.33,79Z" transform="translate(-0.79 -1.39)"/><path class="cls-1" d="M114.61,84.56a9.08,9.08,0,0,1-3.79-.65,5.68,5.68,0,0,1-3.56-4.18,8,8,0,0,1,0-3.38A6.07,6.07,0,0,1,110.62,72a9.1,9.1,0,0,1,4-.89,10.2,10.2,0,0,1,3.56.45c.47.16.89.4,1.37.6a.37.37,0,0,1,.18.58c-.29.63-.56,1.26-.82,1.89-.09.26-.21.28-.46.15a6.52,6.52,0,0,0-3.62-.76,5,5,0,0,0-2.67.81,3.42,3.42,0,0,0-1.4,3.56,3.33,3.33,0,0,0,3,3.1,7.48,7.48,0,0,0,4.61-.59c.44-.22.44-.22.59.25l.59,1.78c.14.46.14.5-.31.71A10.53,10.53,0,0,1,114.61,84.56Z" transform="translate(-0.79 -1.39)"/><path class="cls-1" d="M122.85,77.13V74.76c0-.54,0-.54-.56-.54h-1c-.33,0-.39-.07-.39-.34V71.77c0-.22.09-.31.31-.31h1.24c.42,0,.38-.11.38-.4v-2c0-.48,0-.5.49-.51h2.57c.44,0,.45,0,.45.47V71c0,.52,0,.52.56.52h3.15c.54,0,.54,0,.54.55V73.8c0,.43,0,.47-.46.47H126.7a.29.29,0,0,0-.32.29c0,1.69,0,3.37.11,5a1.87,1.87,0,0,0,1.86,1.88h.18a11.9,11.9,0,0,0,1.69-.12c.37,0,.39,0,.4.32v2a.53.53,0,0,1-.46.58,8.57,8.57,0,0,1-2.9.21,5.07,5.07,0,0,1-2.45-.7,3.6,3.6,0,0,1-1.63-2.3,18.4,18.4,0,0,1-.33-2.33c0-.64,0-1.29,0-1.95Z" transform="translate(-0.79 -1.39)"/><path class="cls-1" d="M45.86,77.87v5.75c0,.62,0,.62-.64.62H43c-.66,0-.66,0-.66-.65V71.77c0-.21.07-.32.29-.32h2.89c.25,0,.33.11.32.34a2.16,2.16,0,0,0,0,.36Z" transform="translate(-0.79 -1.39)"/><path class="cls-2" d="M135.09,61.65v5.41a.22.22,0,0,1-.18.23.22.22,0,0,1-.11,0,.83.83,0,0,1-.28-.21V67a3.36,3.36,0,0,0-.11-.62,5.34,5.34,0,0,0-.48.35,4.41,4.41,0,0,1-3.37.79A3.5,3.5,0,0,1,127.33,64a4.93,4.93,0,0,1,.36-2.52,3.57,3.57,0,0,1,3-2.11,4.34,4.34,0,0,1,2.67.45,8.27,8.27,0,0,1,.74.54l.26.14a.88.88,0,0,0,.06-.27v-4c0-.18.08-.27.28-.28s.32.07.32.28v3.3C135.09,60.27,135.09,61,135.09,61.65Zm-.6,1.78h0V61.79a1.2,1.2,0,0,0-.2-.61,3.84,3.84,0,0,0-4.22-1,3,3,0,0,0-1.31.89,3.69,3.69,0,0,0-.8,3,3.1,3.1,0,0,0,3.13,2.88,3.83,3.83,0,0,0,3-1,1.2,1.2,0,0,0,.44-.89c0-.55,0-1.05,0-1.55Z" transform="translate(-0.79 -1.39)"/><path class="cls-2" d="M141.18,63.6h-3c-.5,0-.52,0-.45.54a3,3,0,0,0,2.89,2.78,5,5,0,0,0,3.45-.71c.14-.08.26-.18.39,0a.29.29,0,0,1,0,.4.1.1,0,0,1,0,0,2.9,2.9,0,0,1-.54.31,6.11,6.11,0,0,1-4.45.22,3,3,0,0,1-1.88-1.65,4.77,4.77,0,0,1,0-4.17,3.58,3.58,0,0,1,3.22-2,5.61,5.61,0,0,1,1.53.1,2.89,2.89,0,0,1,2.21,2,4.19,4.19,0,0,1,.25,1.72c0,.37,0,.4-.42.4Zm-.32-.52h2.73c.51,0,.55,0,.5-.55A2.68,2.68,0,0,0,141.54,60a3.24,3.24,0,0,0-3.76,2.6v0c-.08.47-.07.5.4.51Z" transform="translate(-0.79 -1.39)"/><path class="cls-2" d="M79.77,63.59H76.89c-.58,0-.61.06-.52.63a3,3,0,0,0,3,2.67,4.93,4.93,0,0,0,3.44-.78h.25s.12.32.06.41a.85.85,0,0,1-.36.29,5.89,5.89,0,0,1-5,.25,3,3,0,0,1-1.78-2,5,5,0,0,1-.07-2.91,3.62,3.62,0,0,1,3.44-2.76,5.61,5.61,0,0,1,1.73.15A3.05,3.05,0,0,1,83.3,62.3a5.29,5.29,0,0,1,0,.89c0,.32-.13.4-.4.39H79.77Zm-.25-.51h2.82c.2,0,.39,0,.37-.29a2.77,2.77,0,0,0-1.33-2.45,3.37,3.37,0,0,0-2.74-.26,3,3,0,0,0-2.26,2.47c-.09.48,0,.53.46.53Z" transform="translate(-0.79 -1.39)"/><path class="cls-2" d="M120.63,64.55v2.37c0,.16,0,.34-.25.35s-.29-.14-.31-.35a5.59,5.59,0,0,0-.08-.59c-.16.11-.32.22-.48.35a4.48,4.48,0,0,1-4.2.56,1.86,1.86,0,0,1-1.25-1.85,1.91,1.91,0,0,1,1.06-1.91,4.27,4.27,0,0,1,2.13-.48c.78,0,1.54,0,2.32.07.44,0,.48,0,.45-.45a6.39,6.39,0,0,0-.13-1.06A1.92,1.92,0,0,0,118.27,60a3.72,3.72,0,0,0-3.45.89c-.1.09-.21.27-.38.1a.29.29,0,0,1-.08-.4.34.34,0,0,1,.08-.09,3.74,3.74,0,0,1,1.48-.89,4.91,4.91,0,0,1,2.79-.06,2.32,2.32,0,0,1,1.78,1.78,7.15,7.15,0,0,1,.16,1.22C120.64,63.2,120.63,63.88,120.63,64.55Zm-2.4-1.07h-.5a5.3,5.3,0,0,0-2,.3,1.55,1.55,0,0,0-1.07,1.58,1.48,1.48,0,0,0,1.23,1.46,3.77,3.77,0,0,0,3.89-1.13,1.11,1.11,0,0,0,.22-.55V64c0-.38,0-.41-.44-.46S118.69,63.51,118.23,63.48Z" transform="translate(-0.79 -1.39)"/><path class="cls-2" d="M104.73,59.38a4.4,4.4,0,0,1,2.75.89,3.39,3.39,0,0,1,1.17,1.64,5,5,0,0,1,0,3,3.38,3.38,0,0,1-2.07,2.27,5,5,0,0,1-3.82,0,3.42,3.42,0,0,1-2.12-2.39,4.42,4.42,0,0,1,.42-3.62,3.85,3.85,0,0,1,3.25-1.78Zm3.56,4.1a3.35,3.35,0,0,0-1-2.67,3.93,3.93,0,0,0-5.53.51,3.65,3.65,0,0,0-.28,3.73,3.27,3.27,0,0,0,3.18,1.87,3.34,3.34,0,0,0,3.65-3,3.2,3.2,0,0,0,0-.44Z" transform="translate(-0.79 -1.39)"/><path class="cls-2" d="M87.73,59.3a6.48,6.48,0,0,1,2.22.51,2.6,2.6,0,0,1,.4.23c.2.14.13.3,0,.46s-.21.12-.35,0a4.23,4.23,0,0,0-2.19-.61,2.94,2.94,0,0,0-1.6.32,1.19,1.19,0,0,0-.56,1.58,1.22,1.22,0,0,0,.56.56,14.77,14.77,0,0,0,1.69.6c.6.21,1.21.37,1.78.63a1.85,1.85,0,0,1,1.06,2.09,1.76,1.76,0,0,1-1.41,1.59,5.14,5.14,0,0,1-4.16-.49c-.12-.07-.27-.2-.28-.31,0-.31.22-.44.48-.27a4.45,4.45,0,0,0,3,.69,4,4,0,0,0,.89-.22,1.38,1.38,0,0,0,.76-1.79,1.37,1.37,0,0,0-.56-.65,8.78,8.78,0,0,0-1.41-.6c-.42-.14-.89-.22-1.28-.35A7.31,7.31,0,0,1,86,63,1.72,1.72,0,0,1,85,61.2a1.67,1.67,0,0,1,1.22-1.6A10.22,10.22,0,0,1,87.73,59.3Z" transform="translate(-0.79 -1.39)"/><path class="cls-1" d="M44,69.56H42.63c-.25,0-.39-.06-.39-.34V66.75c0-.24.13-.33.36-.33h2.89c.23,0,.34.1.33.34v2.47c0,.24-.11.34-.35.33Z" transform="translate(-0.79 -1.39)"/><path class="cls-2" d="M96.74,59.38a5.34,5.34,0,0,1,2.26.48,3.87,3.87,0,0,1,.34.21c.2.13.13.29,0,.45s-.23.11-.34,0a4.56,4.56,0,0,0-2.1-.61,4.67,4.67,0,0,0-1.92.31,3.28,3.28,0,0,0-2.09,3.33,3.35,3.35,0,0,0,3.3,3.4,2.3,2.3,0,0,0,.37,0,4.3,4.3,0,0,0,2.47-.59c.09-.07.2-.16.3,0s.19.32,0,.46a2,2,0,0,1-.45.26,5.85,5.85,0,0,1-4.5,0,3.15,3.15,0,0,1-1.78-2,4.8,4.8,0,0,1-.14-2.73,3.65,3.65,0,0,1,3-2.86A4.33,4.33,0,0,1,96.74,59.38Z" transform="translate(-0.79 -1.39)"/><path class="cls-2" d="M111.1,61.62V56.21c0-.18.14-.24.29-.2a.45.45,0,0,1,.28.2c.06.09,0,.24,0,.35V67c0,.2-.12.26-.29.27s-.3,0-.29-.26V61.62Z" transform="translate(-0.79 -1.39)"/></g><path class="cls-1" d="M13.5,76.57a3.4,3.4,0,0,0-6.33-1.78A3.41,3.41,0,0,0,.82,76.57,3.3,3.3,0,0,0,1.87,79h0L7.15,84.3l5.34-5.23A3.41,3.41,0,0,0,13.5,76.57Z" transform="translate(-0.79 -1.39)"/><path class="cls-2" d="M7.21,59.49v8.24L23.82,78,7.21,88.24v8.24L32.47,80.87a3.4,3.4,0,0,0,1.09-4.68,3.34,3.34,0,0,0-1.09-1.09Z" transform="translate(-0.79 -1.39)"/><rect class="cls-1" x="6.38" y="95.09" width="27.55" height="6.32"/><path class="cls-2" d="M6.65,22.87a25.16,25.16,0,0,1,.13-2.53,12.51,12.51,0,0,1,3.84-7.42,12.09,12.09,0,0,1,5.65-3,12.12,12.12,0,0,1,10.46,2.22A11.6,11.6,0,0,1,31.22,19a18.56,18.56,0,0,1,.44,3.93V44.12c0,.9,0,.9-.91.9H26.67c-.81,0-.81,0-.81-.8V28.7a9.9,9.9,0,0,0-3.18-7.65,10.1,10.1,0,0,0-10.49-2.26,10.42,10.42,0,0,0-5,3.74L7,22.75A2,2,0,0,0,6.65,22.87Z" transform="translate(-0.79 -1.39)"/><path class="cls-2" d="M31.48,15.37c-.4-.57-.69-1-1-1.49a13.27,13.27,0,0,0-10.4-5.69,13.55,13.55,0,0,0-13.3,7.48,11,11,0,0,0-1.4,4.81c-.06,1-.14,2-.14,3v20.8c0,.55-.15.75-.72.73H1.68c-.89,0-.89,0-.89-.89v-27A15.49,15.49,0,0,1,3.5,8.22a15,15,0,0,1,9.66-6.47A14.74,14.74,0,0,1,24.77,4a15,15,0,0,1,6.53,9.62c.08.41.13.84.2,1.26C31.51,15,31.49,15.11,31.48,15.37Z" transform="translate(-0.79 -1.39)"/><path class="cls-2" d="M24.5,38.91v5.36c0,.73,0,.77-.75.77H13.1c-.72,0-.77,0-.77-.76V33.7a6.18,6.18,0,0,1,5.15-6.08,6,6,0,0,1,6.86,4.8,11,11,0,0,1,.16,1.8C24.52,35.79,24.5,37.35,24.5,38.91Z" transform="translate(-0.79 -1.39)"/><path class="cls-2" d="M24.34,28.89c-.43-.37-.84-.76-1.26-1.12a7.44,7.44,0,0,0-10.46,1.15,8,8,0,0,0-1,1.55,7.2,7.2,0,0,0-.72,3.16V44.29c0,.57-.19.75-.74.74h-3c-.39,0-.53-.12-.53-.54.08-5.41,0-10.8.08-16.23a8.88,8.88,0,0,1,17.56-1.6c.16.72.18,1.48.28,2.22A.75.75,0,0,0,24.34,28.89Z" transform="translate(-0.79 -1.39)"/><path class="cls-2" d="M84.15,24.08a5.06,5.06,0,0,0,.09-.68V15.79c0-1,.22-1.2,1.21-1.2h1.17c.61,0,.83.26.84.88V32.66c0,1-.17,1.17-1.14,1.18H85c-.72,0-1-.27-1.09-1-.56-2.48-1.11-4.93-1.68-7.41a2,2,0,0,0-.57-.85v7.81c0,1.24-.17,1.42-1.43,1.42H79.6c-1,0-1.25-.22-1.25-1.24V16c0-1.23.2-1.4,1.44-1.4H81a1,1,0,0,1,1,.81c.47,2.26,1,4.54,1.42,6.81.13.62.29,1.26.43,1.92A1.62,1.62,0,0,1,84.15,24.08Z" transform="translate(-0.79 -1.39)"/><path class="cls-2" d="M49.24,19.22v1c0,.67-.19.89-.85,1s-1.29,0-1.93,0a.74.74,0,0,1-.81-.66v-.08l-.06-2.05c0-.43-.09-.8-.63-.79s-.59.35-.58.77v1.82a2.11,2.11,0,0,0,.86,1.87c1,.79,1.87,1.61,2.82,2.39a3.64,3.64,0,0,1,1.35,3,15.24,15.24,0,0,1-.15,3.44c-.66,2.62-2.49,3.4-4.89,3.23a3.93,3.93,0,0,1-3.58-2.88,7.37,7.37,0,0,1-.11-3.76c0-.21.46-.48.72-.51a17.53,17.53,0,0,1,2.05,0,.71.71,0,0,1,.73.7V30c0,.72.21.84.72.85s.68-.22.68-.86V28a2.1,2.1,0,0,0-.85-1.76c-1-.85-1.92-1.72-2.88-2.59a3.86,3.86,0,0,1-1.33-3.11,20,20,0,0,1,.11-2.68,4,4,0,0,1,4.44-3.54h0a4,4,0,0,1,4.14,3.9,3.69,3.69,0,0,1,0,.47C49.24,18.86,49.24,19,49.24,19.22Z" transform="translate(-0.79 -1.39)"/><path class="cls-2" d="M69.71,24.15V15.71c0-1,.22-1.17,1.18-1.17H76c.86,0,1.1.25,1.1,1.11v1a.88.88,0,0,1-.78,1H74.08c-.38,0-.51.15-.5.52v4.34c0,.35.12.51.48.49a9.11,9.11,0,0,1,1.28,0c.66,0,.88.28.89,1,0,1.73,0,1.75-1.74,1.75-.9,0-.9,0-.9.89V30c0,.43.13.59.56.58h2c.68,0,1,.28,1,1v1.35a.76.76,0,0,1-.66.85H70.56c-.62,0-.86-.31-.88-1C69.71,29.93,69.71,27,69.71,24.15Z" transform="translate(-0.79 -1.39)"/><path class="cls-2" d="M50.72,24.19V15.7c0-1,.21-1.16,1.17-1.16H57c1,0,1.08.17,1.08,1.09v1c0,.71-.22,1-1,1h-2c-.38,0-.55.14-.55.56v4.28c0,.37.14.52.51.52h1.11a1.31,1.31,0,0,1,.52.06c.83.43.39,1.2.48,1.83a.63.63,0,0,1-.49.74H55.09c-.44,0-.59.13-.59.58V30c0,.48.19.62.62.61h2.05c.7,0,.86.19.87.88V32.8c0,.83-.16,1-1,1H51.65c-.73,0-1-.27-1-1C50.72,29.94,50.72,27.06,50.72,24.19Z" transform="translate(-0.79 -1.39)"/><path class="cls-2" d="M151.89,24.15V15.5c0-.8.2-1,1-1h5.33c.8,0,1,.22,1,1v1.06c0,.78-.25,1-1.07,1h-2c-.36,0-.52.15-.52.52v4.34c0,.35.14.49.48.49h1.47c.51,0,.67.31.7.77.11,1.78,0,1.87-1.77,1.87-.87,0-.87,0-.87.87V29.8c0,.53.14.74.69.72s1.29,0,1.92,0,1,.24,1,1v1.41a.79.79,0,0,1-.8.87H152.7c-.67,0-.83-.24-.83-1C151.88,29.94,151.89,27.05,151.89,24.15Z" transform="translate(-0.79 -1.39)"/><path class="cls-2" d="M103.26,24.23v8.5c0,.91-.21,1.11-1.11,1.12h-1.63c-.71,0-1-.27-1-1V15.76c0-1,.21-1.2,1.2-1.2h1.41c.86,0,1.08.23,1.09,1.07Z" transform="translate(-0.79 -1.39)"/><path class="cls-2" d="M119.05,24.19v8.48c0,1-.18,1.13-1.12,1.14H116.4c-.79,0-1-.25-1-1.06V15.63c0-.87.23-1.09,1.12-1.11h1.58c.76,0,1,.23,1,1C119.05,18.41,119.05,21.3,119.05,24.19Z" transform="translate(-0.79 -1.39)"/><path class="cls-2" d="M67.2,25.11a.45.45,0,0,1-.06-.63l.06-.07a4.92,4.92,0,0,0,.71-1.29A9,9,0,0,0,68,17.71a4,4,0,0,0-3.61-3.09c-1.29-.11-2.58-.08-3.85-.1-1,0-1.16.22-1.16,1.17v17c0,.81.23,1,1,1.05H62c1,0,1.11-.19,1.11-1.14V26.78c0-.21.13-.54.29-.59a.84.84,0,0,1,1.12.4.83.83,0,0,1,.08.43v6c0,.37.09.76.54.77h2.76c.33,0,.46-.19.46-.54V28A3.76,3.76,0,0,0,67.2,25.11Zm-2.65-2.7c0,.51-.35.73-1,.72s-.49-.38-.49-.74V18.32c0-.35,0-.73.49-.73s1,.23,1,.74v2.22C64.55,21.3,64.57,21.79,64.55,22.41Z" transform="translate(-0.79 -1.39)"/><path class="cls-2" d="M150.47,18.74a4.39,4.39,0,0,0-3.68-4.09c-1.45-.1-2.89-.1-4.33-.09-.65,0-.85.26-.85,1V32.83c0,.76.17,1,.91,1h3.62a4.4,4.4,0,0,0,4.33-4.17C150.49,26,150.48,22.36,150.47,18.74Zm-3.78,10.87c0,.82-.18,1-.77,1.07-.42,0-.58-.12-.58-.56V18.32c0-.26-.08-.61.33-.61s.78-.12.89.41a2.77,2.77,0,0,1,.11.64q0,5.41,0,10.85Z" transform="translate(-0.79 -1.39)"/><path class="cls-2" d="M98,19.06a4.14,4.14,0,0,0-.23-1.44,4.22,4.22,0,0,0-3.78-3c-1.25-.09-2.49-.06-3.74-.06-1,0-1.14.24-1.14,1.14v17.1c0,.71.21,1,.84,1a39.52,39.52,0,0,0,4.21-.11A4.35,4.35,0,0,0,98,29.27C98,25.9,98,22.48,98,19.06ZM94.22,29.85c0,.64-.22.83-.83.88s-.67-.11-.66-.62V18.32c0-.3-.08-.66.41-.71a.91.91,0,0,1,1,.61.71.71,0,0,1,0,.29Z" transform="translate(-0.79 -1.39)"/><path class="cls-2" d="M129.78,19.2a4.16,4.16,0,0,0-.22-1.48,4.11,4.11,0,0,0-3.49-3.06c-1.33-.12-2.69-.1-4-.12-1,0-1.17.21-1.17,1.17v17c0,.73.2,1,.81,1a39.43,39.43,0,0,0,4.21-.07,4.38,4.38,0,0,0,3.84-4.39C129.78,26,129.78,22.57,129.78,19.2Zm-3.73,10.65c0,.66-.23.88-.85,1-.44,0-.65-.11-.64-.59s0-1,0-1.49V18.32c0-.32-.07-.7.44-.73a.89.89,0,0,1,1,.66,1.5,1.5,0,0,1,0,.3Q126.07,24.16,126.05,29.85Z" transform="translate(-0.79 -1.39)"/><path class="cls-2" d="M140.27,33.08c-.31-1.92-.65-3.85-1-5.83-.38-2.23-.74-4.46-1.12-6.68-.29-1.73-.58-3.45-.88-5.18a1,1,0,0,0-1-.85h-1.92c-.74,0-1,.31-1.15,1.05-.24,1.55-.5,3.11-.76,4.67q-.45,2.7-.91,5.41c-.19,1.13-.4,2.25-.59,3.38-.21,1.33-.4,2.65-.62,4-.08.53.16.78.67.78h2.11c.69,0,1-.28,1-1a8.22,8.22,0,0,1,.08-1.41c0-.15.1-.4.16-.4h1.84c.06,0,.15.18.16.29s0,.42.05.64c.13,1.93.13,1.93,2.06,1.93h1.16A.65.65,0,0,0,140.27,33.08Zm-5-4.95c-.45,0-.81,0-.74-.65.17-1.45.29-2.88.44-4.37a4.66,4.66,0,0,1,.17-.79h.14a5.23,5.23,0,0,1,.23.77c.14,1.47.25,2.95.42,4.42C136,28.09,135.74,28.13,135.3,28.13Z" transform="translate(-0.79 -1.39)"/><path class="cls-2" d="M113.92,18.52a4.35,4.35,0,0,0-4.51-4h-3.16c-1,0-1.18.2-1.18,1.16V32.81c0,.74.24,1,1,1h1.7c.84,0,1-.2,1-1.05V27.15c0-.59.13-.81.77-.83a4.14,4.14,0,0,0,4.31-3.55A14.09,14.09,0,0,0,113.92,18.52Zm-3.67,4a.87.87,0,0,1-.86.88.86.86,0,0,1-.41-.1c-.12-.06-.18-.31-.19-.49V18.32c0-.32-.07-.69.45-.72s1,.21,1,.72,0,1.27,0,1.92S110.26,21.75,110.25,22.5Z" transform="translate(-0.79 -1.39)"/></svg>