<svg id="Camada_1" data-name="Camada 1" xmlns="http://www.w3.org/2000/svg" viewBox="0 0 200 57.06"><defs><style>.cls-1{fill:#fff;}</style></defs><g id="B6jff3"><path class="cls-1" d="M82.75,1.35c-.09.17-.15.3-.24.44q-7.47,13-15,25.94a.58.58,0,0,1-.59.32H35.62V20.51h.43a33.68,33.68,0,0,0,5.32-.23,13,13,0,0,0,4.36-1.4,8.08,8.08,0,0,0,3.8-4.45,12.5,12.5,0,0,0,.08-8.19,7.77,7.77,0,0,0-4-4.65l-.45-.24Z"/><path class="cls-1" d="M34.5,19.38V28H27.22V1.35l.33,0c3.92,0,7.84,0,11.76,0a14.32,14.32,0,0,1,4.8.81A7.23,7.23,0,0,1,49,8.29,12.1,12.1,0,0,1,48.79,13a7.53,7.53,0,0,1-5.33,5.64,17.32,17.32,0,0,1-5.45.73H34.5Zm0-6.07c1.59,0,3.12,0,4.64,0a2.39,2.39,0,0,0,2.45-1.86A6.45,6.45,0,0,0,41.71,10a2.44,2.44,0,0,0-2.14-2.5,7.46,7.46,0,0,0-1-.1H34.5Z"/><path class="cls-1" d="M1.25,1.25H8.81a.53.53,0,0,1,.51.3c1,1.77,2,3.54,3,5.32l.24.4c.1-.16.18-.3.25-.43l3.05-5.29c.1-.16.18-.3.43-.3,2.59,0,5.19,0,7.77,0l.17,0A4.09,4.09,0,0,1,24,1.7C21.66,5.82,19.28,9.92,16.91,14a.59.59,0,0,0,0,.69q3.75,6.45,7.47,12.94c.07.11.14.25.22.4H17.06a.53.53,0,0,1-.53-.33L13,21.66c-.09-.13-.15-.26-.25-.43l-1.54,2.65c-.75,1.3-1.5,2.6-2.25,3.92-.1.17-.2.3-.43.28H.85l-.23,0a3.17,3.17,0,0,1,.23-.42q3.81-6.57,7.61-13.17a.63.63,0,0,0,0-.73c-2.36-4-4.69-8.06-7-12.11Z"/><path class="cls-1" d="M101.14,28H94.22V16.83a9,9,0,0,0-.1-1.47,2.09,2.09,0,0,0-2.69-1.93,1.8,1.8,0,0,0-1.61,1.5,7.75,7.75,0,0,0-.19,1.8c0,3.6,0,7.22,0,10.82V28H82.8V8h6.82v1.3l.43-.3a7.84,7.84,0,0,1,6.4-1.25,5.53,5.53,0,0,1,4.26,4.32,13.17,13.17,0,0,1,.45,3.58c0,4,0,8,0,12.06C101.16,27.83,101.14,27.9,101.14,28Z"/><path class="cls-1" d="M121.2,12.18c-1.6,1.2-3.15,2.38-4.7,3.56-.39-.56-.72-1.1-1.1-1.61a2.31,2.31,0,0,0-1.72-.94,2.09,2.09,0,0,0-2.3,1.32,9.14,9.14,0,0,0-.58,2.3A10.18,10.18,0,0,0,111,20.5c0,.16.1.35.15.51a2.56,2.56,0,0,0,4.32,1.15,17.9,17.9,0,0,0,1.62-1.8c1.4,1.09,2.83,2.22,4.28,3.34-1.78,2.78-4.07,4.7-7.52,4.78a11.59,11.59,0,0,1-4.1-.55,7.66,7.66,0,0,1-4.92-4.83,14.23,14.23,0,0,1,0-10.06,7.93,7.93,0,0,1,6.52-5.25,10.74,10.74,0,0,1,4.82.17A8.58,8.58,0,0,1,121.2,12.18Z"/><path class="cls-1" d="M78.88,28H72.06a2.48,2.48,0,0,1,0-.38V22.51a1.09,1.09,0,0,1,.13-.55c2.19-3.8,4.39-7.6,6.57-11.4,0-.05.05-.08.14-.19Z"/><path class="cls-1" d="M127.9,28.47a4.3,4.3,0,0,1-4.38-4.42,4.4,4.4,0,0,1,8.8,0A4.3,4.3,0,0,1,127.9,28.47Z"/></g></svg>