<svg id="Camada_1" data-name="Camada 1" xmlns="http://www.w3.org/2000/svg" viewBox="0 0 200 72.1"><defs><style>.cls-1,.cls-2,.cls-3,.cls-4,.cls-5{fill:#fff;}.cls-1{opacity:0.5;}.cls-2{opacity:0.7;}.cls-4{opacity:0.8;}.cls-5{opacity:0.6;}</style></defs><polygon class="cls-1" points="87 16.83 0.78 2.98 39.52 30.24 87 16.83"/><polygon class="cls-2" points="52.41 2.98 87 16.83 61.8 12.79 52.41 2.98"/><polygon class="cls-3" points="63.74 40.02 87 16.83 39.52 30.24 63.74 40.02"/><polygon class="cls-4" points="80.71 32.32 87 16.83 63.74 40.02 80.71 32.32"/><polygon class="cls-5" points="61.8 12.79 69.97 21.64 87 16.84 61.8 12.79"/><polygon class="cls-3" points="98.1 6.37 99.06 6.37 111.29 30.19 114.15 30.19 114.15 5.21 112.89 5.21 112.89 28.83 112.01 28.83 99.88 5.21 96.84 5.21 96.84 30.19 98.1 30.19 98.1 6.37"/><path class="cls-3" d="M139.07,28.67c-8.91,1.46-11.21-.5-12.23-2.38-1.76-3.26-2.08-8-1-14.62a6.11,6.11,0,0,1,2.71-4.36c3.86-2.46,10.37-.67,10.44-.66l.34-1.21c-.29-.08-7.11-1.95-11.45.8a7.29,7.29,0,0,0-3.28,5.22c-1.14,6.87-.78,11.91,1.13,15.43.93,1.73,2.72,3.54,8,3.54a34.81,34.81,0,0,0,5.57-.51Z"/><polygon class="cls-3" points="149.89 18.33 165.01 18.33 165.01 30.19 166.27 30.19 166.27 5.21 165.01 5.21 165.01 17.07 149.89 17.07 149.89 5.21 148.63 5.21 148.63 30.19 149.89 30.19 149.89 18.33"/><path class="cls-3" d="M102.05,41a.13.13,0,0,0-.13.08,2.6,2.6,0,0,1-2.55,1.71,2.45,2.45,0,0,1-2-1,3.55,3.55,0,0,1-.8-2.34A3.62,3.62,0,0,1,97.43,37a2.45,2.45,0,0,1,2-1,2.23,2.23,0,0,1,1.38.44,2,2,0,0,1,.78,1.13s0,.08.12.08.16,0,.16-.08c-.11-.67-.19-1.24-.23-1.71a8.67,8.67,0,0,1-.9-.08,10.49,10.49,0,0,0-1.27-.11,4.19,4.19,0,0,0-2,.48A3.57,3.57,0,0,0,96,37.55a3.62,3.62,0,0,0-.52,1.88A3.76,3.76,0,0,0,96,41.31a3.32,3.32,0,0,0,1.35,1.3,4.33,4.33,0,0,0,2,.45,8.88,8.88,0,0,0,1.43-.18,6.84,6.84,0,0,1,1-.13c.12-.61.23-1.18.35-1.72C102.19,41,102.15,41,102.05,41Z"/><path class="cls-3" d="M114.14,42.62a1.37,1.37,0,0,1-1.28-1l-2.08-5.8a.14.14,0,0,0-.15-.08.13.13,0,0,0-.14.08l-2.36,5.8a2.25,2.25,0,0,1-.51.78,1.23,1.23,0,0,1-.66.23.13.13,0,0,0-.12.15c0,.09,0,.13.08.13l.58,0,.55,0,.61,0,.67,0c.06,0,.09,0,.09-.14s0-.14-.06-.14c-.55,0-.82-.19-.82-.49a1.72,1.72,0,0,1,.11-.48l.58-1.57h2.07l.57,1.69a1.47,1.47,0,0,1,.1.42.31.31,0,0,1-.2.31,1.53,1.53,0,0,1-.64.12s-.06.05-.06.14,0,.14.08.14l.82,0,.76,0,.64,0,.79,0s.08,0,.08-.14S114.21,42.63,114.14,42.62Zm-4.79-2.86,1-2.57.89,2.57Z"/><path class="cls-3" d="M124,36.41a2.92,2.92,0,0,0-1.88-.52l-.8,0-.75,0-.76,0-.8,0c-.06,0-.09,0-.09.13s0,.14.09.14a3.09,3.09,0,0,1,.65.14.62.62,0,0,1,.31.22,1.17,1.17,0,0,1,.08.5v4.75a.7.7,0,0,1-.22.62,1.83,1.83,0,0,1-.82.23c-.06,0-.09.05-.09.14s0,.14.09.14l.8,0,.76,0,.75,0,.8,0c.05,0,.08,0,.08-.14s0-.13-.08-.14a2.93,2.93,0,0,1-.64-.13.59.59,0,0,1-.31-.23,1,1,0,0,1-.09-.49V40a11.72,11.72,0,0,0,1.19.05,2.48,2.48,0,0,0,1.69-.6,1.92,1.92,0,0,0,.68-1.49A1.85,1.85,0,0,0,124,36.41Zm-.92,2.83a1.68,1.68,0,0,1-1.27.47,1.44,1.44,0,0,1-.59-.08.3.3,0,0,1-.14-.29V37a1.08,1.08,0,0,1,.09-.54.52.52,0,0,1,.3-.2,2.44,2.44,0,0,1,.61-.06,1.33,1.33,0,0,1,1,.46,2.14,2.14,0,0,1,0,2.56Z"/><path class="cls-3" d="M132.19,36.52a.55.55,0,0,1,.3-.22,3.09,3.09,0,0,1,.65-.14c.05,0,.08,0,.08-.14s0-.13-.08-.13l-.8,0-.75,0-.75,0-.82,0c-.05,0-.08,0-.08.13s0,.14.08.14a2.82,2.82,0,0,1,.65.14.54.54,0,0,1,.31.22,1,1,0,0,1,.09.5v4.75a.7.7,0,0,1-.22.62,1.84,1.84,0,0,1-.83.23c-.05,0-.08.05-.08.14s0,.14.08.14l.82,0,.75,0,.75,0,.8,0c.05,0,.08,0,.08-.14s0-.13-.09-.14a3.07,3.07,0,0,1-.64-.13.56.56,0,0,1-.3-.23,1,1,0,0,1-.09-.49V37A1,1,0,0,1,132.19,36.52Z"/><path class="cls-3" d="M141.87,36a19.31,19.31,0,0,1-3.13-.15,18,18,0,0,1-.54,1.73c0,.07.06.11.17.11a.1.1,0,0,0,.11-.08,1.67,1.67,0,0,1,.76-.93,2.41,2.41,0,0,1,1.29-.36h.39a.58.58,0,0,1,.35.08.38.38,0,0,1,.09.3v5.12a.73.73,0,0,1-.22.62,1.93,1.93,0,0,1-.83.23c-.06,0-.08.05-.08.14s0,.14.08.14l.8,0,.76,0,.75,0,.8,0c.06,0,.08,0,.08-.14s0-.13-.08-.14a3.07,3.07,0,0,1-.64-.13.59.59,0,0,1-.31-.23,1,1,0,0,1-.09-.49V36.65a.38.38,0,0,1,.09-.3.54.54,0,0,1,.34-.08h.47a2.08,2.08,0,0,1,1.2.29,2,2,0,0,1,.62,1s0,.07.1.07.18,0,.18-.1a14.48,14.48,0,0,1-.3-1.74A20.22,20.22,0,0,1,141.87,36Z"/><path class="cls-3" d="M156.52,42.62a1.65,1.65,0,0,1-.81-.29,1.63,1.63,0,0,1-.48-.72l-2.08-5.8a.14.14,0,0,0-.15-.08.14.14,0,0,0-.14.08l-2.36,5.8a2,2,0,0,1-.51.78,1.23,1.23,0,0,1-.66.23c-.08,0-.11.06-.11.15s0,.13.07.13l.59,0,.54,0,.62,0,.67,0s.08,0,.08-.14,0-.14-.06-.14c-.55,0-.82-.19-.82-.49a1.72,1.72,0,0,1,.11-.48l.58-1.57h2.07l.57,1.69a1.6,1.6,0,0,1,.11.42.33.33,0,0,1-.2.31,1.59,1.59,0,0,1-.65.12s-.06.05-.06.14,0,.14.08.14l.82,0,.76,0,.65,0,.78,0c.06,0,.09,0,.09-.14S156.58,42.63,156.52,42.62Zm-4.8-2.86.95-2.57.89,2.57Z"/><path class="cls-3" d="M167.16,41a.19.19,0,0,0-.12,0,.11.11,0,0,0-.1,0,3.29,3.29,0,0,1-.84,1.23,1.69,1.69,0,0,1-1,.33h-1a.51.51,0,0,1-.58-.59V37a1,1,0,0,1,.08-.5.58.58,0,0,1,.31-.22,3,3,0,0,1,.64-.14c.06,0,.09,0,.09-.14s0-.13-.09-.13l-.8,0L163,36l-.75,0-.81,0s-.08,0-.08.13,0,.14.08.14a3.09,3.09,0,0,1,.65.14.58.58,0,0,1,.31.22,1,1,0,0,1,.09.5v4.75a.73.73,0,0,1-.22.62,1.89,1.89,0,0,1-.83.23s-.08.05-.08.14,0,.14.08.14c1.27,0,2.17-.06,2.71-.06s1.46,0,2.75.06a14.93,14.93,0,0,1,.37-1.86A.12.12,0,0,0,167.16,41Z"/></svg>