<svg id="Camada_1" data-name="Camada 1" xmlns="http://www.w3.org/2000/svg" viewBox="0 0 200 72.1"><defs><style>.cls-1{fill:#fff;}</style></defs><path class="cls-1" d="M124.87,10.71V14s0,.05-.06.06l0,0h-8.45a5,5,0,0,0-.07.92l.07.07,0,0h5.9a16.67,16.67,0,0,1,0,3.29h-6v1h8.6V20.6a10.81,10.81,0,0,0,0,1.14c0,.36-.13.71-.07,1.1H112.87V10.73C116.84,10.71,120.83,10.71,124.87,10.71Z"/><path class="cls-1" d="M111.55,10.68V22.76a.13.13,0,0,0,0,.06l-.06,0h-3.14a20.47,20.47,0,0,1,0-2.07c0-.68,0-1.35,0-2V16.62L105.53,19s-1.67-1.67-2.55-2.57c0,.75,0,1.43,0,2.11v4.21a11.93,11.93,0,0,1-1.69.05c-.55,0-1.1,0-1.63,0,0,0,0,0-.06-.05a.09.09,0,0,1,0-.05c0-3.91,0-7.82,0-11.73v-.32h2.31l3.67,3.67,3.66-3.68Z"/><path class="cls-1" d="M58.33,22.83H55c-.11-.57-.15-8.09-.07-12.08l0,0a.05.05,0,0,1,.05,0h2.32l3.7,3.7c1.19-1.24,2.48-2.37,3.58-3.69h2.32v12.1a.14.14,0,0,1,0,0l-.05,0H63.68c-.08-.69,0-1.38,0-2.08s0-1.43,0-2.15V16.45L61,19.12a16.76,16.76,0,0,1-1.35-1.3l-1.35-1.35Z"/><path class="cls-1" d="M138.16,22.83H136l-6.3-6.31-.06,0a.08.08,0,0,0,0,.05v6.2a15.93,15.93,0,0,1-1.69,0c-.55,0-1.1,0-1.65,0-.11-.5-.15-7.58-.07-12.09l0,0a.07.07,0,0,1,.05,0h2.26l6.21,6.22.12-.05s0,0,0,0V10.69h3.28C138.16,14.72,138.16,18.75,138.16,22.83Z"/><path class="cls-1" d="M161.36,22.83h-5c-1.21-1.23-2.36-2.41-3.54-3.6v-5c1.18-1.22,2.32-2.39,3.44-3.56h5.08l3.49,3.5v5.18c-.53.59-1.16,1.14-1.73,1.73S161.91,22.28,161.36,22.83Zm.15-5V15.76c-.56-.57-1.09-1.11-1.59-1.64h-2.3a13.63,13.63,0,0,0-1.4,1.45v2.32a11.37,11.37,0,0,0,1.77,1.6,16.31,16.31,0,0,1,1.93-.08Z"/><path class="cls-1" d="M90.26,10.68h3.22l0,.05a.08.08,0,0,1,0,0V17.4c-2,2-4,4-5.93,5.93-.42-.27-4-3.81-6-5.89V10.77s0,0,.07-.06a.05.05,0,0,1,0,0h3.14a12.81,12.81,0,0,1,0,1.75c0,.61,0,1.23,0,1.83v1.67l2.64,2.66c.86-.86,1.72-1.74,2.69-2.69C90.26,14.28,90.26,12.52,90.26,10.68Z"/><path class="cls-1" d="M144.49,28.94h9.78v2.63h-7c-.33.29-.27.57-.07.89h4.89c.06.89,0,1.74,0,2.65-.84.06-1.65,0-2.46,0h-2.46a2.39,2.39,0,0,0-.15.37.44.44,0,0,0,.22.52h7c0,.47,0,.92,0,1.38v1.32l-.06.05a.09.09,0,0,1-.05,0l-9.51,0h-.23C144.35,37.72,144.38,29.37,144.49,28.94Z"/><path class="cls-1" d="M122.06,38.8h-2.74c0-.55,0-1.12,0-1.68s0-1.18,0-1.78v-1.8l-2.14,2.15c-.75-.66-1.38-1.39-2.13-2.09,0,.16,0,.3,0,.43v4.24c0,.18.05.39-.22.51h-2.55V28.94h1.91l2.93,2.95a6.07,6.07,0,0,0,1.08-1l1-1,1-1h1.92Z"/><path class="cls-1" d="M140.64,34l.1-5h2.71l.05,9.81c-.59.09-1.2,0-1.84,0-.33-.33-.66-.69-1-1s-.71-.71-1.08-1.07l-1-1c-.36-.37-.73-.71-1.06-1.08s-.67-.65-1.06-1v5.2h-2.77V28.93h2l1,1c.33.33.66.65,1,1s.64.73,1,1.07.68.61,1,.93S140.27,33.63,140.64,34Z"/><path class="cls-1" d="M143.9,22.82V14.1h-4.4a13.67,13.67,0,0,1,0-1.69c0-.55,0-1.1,0-1.64l.06,0s0,0,.05,0h11.93v3.42h-4.3l.06,8.72Z"/><path class="cls-1" d="M107.51,29l-4.82,4.82,5,5a16.26,16.26,0,0,1-2,0c-.61,0-1.23,0-1.83,0a22.82,22.82,0,0,1-1.65-1.61c-.55-.52-1-1.08-1.67-1.62a7.48,7.48,0,0,0-.06,1.62c0,.53,0,1,0,1.6H97.89V28.94h2.61c0,1,0,2,0,3.09a4.86,4.86,0,0,0,1.11-1c.37-.34.72-.71,1.07-1.07s.67-.71,1-1C105,29,106.25,29,107.51,29Z"/><path class="cls-1" d="M94.25,28.94c.31.27.56.61.86.87s.63.63,1,.93.6.6.9.87v1.3l0,0,0,0H94.32L93,31.59H91.22l-1.33,1.35v1.59c0,.49.4.57.62.84a6.71,6.71,0,0,0,.69.64H93c.44-.42.89-.86,1.37-1.38h2.59l0,1.26-2.9,2.9h-4l-1-.95a14.15,14.15,0,0,0-1-1c-.36-.3-.6-.68-1-1v-4L90,28.92C91.38,28.94,92.82,28.94,94.25,28.94Z"/><path class="cls-1" d="M158.75,35.85c-1.2-1.2-2.39-2.37-3.58-3.55V28.94h2.62s0,1.77,0,2.13a7.94,7.94,0,0,0,2.31,2.2c.33-.42,1.77-1.85,2.14-2.3V29h2.63v3.31l-3.53,3.54v3h-2.63Z"/><path class="cls-1" d="M68.43,36h7l.07.06a.08.08,0,0,1,0,.06v2.59s0,0,0,0a.09.09,0,0,1,0,0l-9.38,0h-.38V29h2.74Z"/><path class="cls-1" d="M95,10.68h3.19c.09.45.14,10.94,0,12.14H95Z"/><path class="cls-1" d="M76.7,10.69H71.9l-3.57,3.57v5l3.53,3.53h4.86l3.52-3.52V14.23Zm.23,7.14-1.58,1.58H73.23L71.65,17.8V15.68l1.64-1.59h2l1.61,1.66C76.93,16.35,76.93,17.06,76.93,17.83Z"/><path class="cls-1" d="M64.48,33.77c.12-.15.22-.28.28-.37V30.68l-1.7-1.74H54.93V38.8h8c.62-.61,1.22-1.23,1.85-1.84V34.24A5.2,5.2,0,0,1,64.48,33.77ZM57.7,31.62h4.13l.32.3c-.06.19-.13.35-.2.54H57.7ZM61.82,36h-4.1v-.87h4.1l.35.43Z"/><path class="cls-1" d="M81.3,28.42a6.48,6.48,0,0,0-.93.84c-.33.33-.67.65-1,1s-.68.66-1,1l-1,1-.94,1v5.53s0,0,0,.05l0,0H79s0,0,.06,0l0,0c0-.47,0-1,0-1.44h2.2c.74,0,1.46,0,2.21,0v1.46h2.65V33.34C84.54,31.66,82.94,30.05,81.3,28.42Zm2.23,6.15a42,42,0,0,1-4.39,0,.11.11,0,0,1,0-.06s0,0,0-.06c.72-.75,1.46-1.51,2.17-2.23l2.24,2.19A.56.56,0,0,1,83.53,34.57Z"/><path class="cls-1" d="M130,28.93h-4.25L123,31.7v4.2c1,1,1.94,2,2.91,2.9h4L132.74,36V31.64Zm.06,5.74L128.71,36H127l-1.34-1.37V33L127,31.61h1.73L130.06,33Z"/><g id="avaRpS"><path class="cls-1" d="M31.42,16.7V32.8H45.33A23.42,23.42,0,0,1,23.35,48,23.41,23.41,0,0,1,1.18,32.82h13.9V16.67c-.47.34-.88.63-1.27.93L7.5,22.31a.41.41,0,0,1-.6,0C4.94,20.85,3,19.39,1,17.93a.39.39,0,0,1-.14-.52A23.52,23.52,0,0,1,14.79,3,23.61,23.61,0,0,1,26.88,1.78,23.52,23.52,0,0,1,45.63,17.39a.39.39,0,0,1-.15.51c-2,1.48-4,3-6,4.46a.33.33,0,0,1-.49,0L31.6,16.81A.78.78,0,0,1,31.42,16.7Zm-2.65,7.76.13-.18A3.9,3.9,0,0,0,29,19.36a5.23,5.23,0,0,0-4.38-2.12c-2.61,0-5.23,0-7.84,0-.31,0-.4.1-.39.39q0,7.41,0,14.83c0,.28.09.35.37.35,2.57,0,5.14,0,7.7,0a6.1,6.1,0,0,0,4.87-2.13,4.32,4.32,0,0,0,1.05-3.86A4.05,4.05,0,0,0,28.77,24.46Z"/></g></svg>