<?xml version="1.0" encoding="utf-8"?>
<!-- Generator: Adobe Illustrator 25.0.0, SVG Export Plug-In . SVG Version: 6.00 Build 0)  -->
<svg version="1.1" xmlns="http://www.w3.org/2000/svg" xmlns:xlink="http://www.w3.org/1999/xlink" x="0px" y="0px"
	 viewBox="0 0 320 100" style="enable-background:new 0 0 320 100;" xml:space="preserve">
<style type="text/css">
	.st0{fill:#0072BB;}
	.st1{fill:none;}
</style>
<g id="Guides">
</g>
<g id="Layer_1">
	<g>
		<g>
			<path class="st0" d="M63.57,50.72l-2.32,0.4l0.61-4.64l-0.61-0.91l0.61-5.25l5.95,2.42L63.57,50.72z M73.05,64.64h-7.77
				l7.36-11.6l2.22-7.56l4.64,1.61C79.1,52.94,77.19,58.89,73.05,64.64z M70.33,52.64l-2.93,2.52l-5.85,9.48h-3.83l3.83-6.76
				l3.03-2.52l4.34-12.2l4.64,1.92L70.33,52.64z M60.35,29.04l-15.43-8.97l-5.65-1.01v4.13l4.34,4.03l-6.05-0.5
				c0,0,0.2,0.3,5.24,5.65l22.99,3.83l4.03,2.62l-10.49,0.5L55,55.16l-14.22,9.48h-9.28l3.13-6.15l-0.5-0.2l-8.37,6.35h-2.02
				l8.57-12c0.4-3.43,0.2-1.92,0.71-8.07l-1.31-1.82l-3.43,13.31l-7.16,8.57H19.3l4.23-5.95l5.95-18.25l-1.51,0.71l-2.62,7.26
				l-1.81,1.01c0,0-4.23,10.29-6.45,15.33c-3.23-4.64-6.86-10.89-6.86-21.78c0-16.34,14.02-33.58,35.09-33.58
				c20.27,0,31.06,16.13,32.87,24.5L60.35,29.04z M55.61,64.64h-4.84l8.97-11.19l0.91,1.71L55.61,64.64z M45.12,78.56
				c-8.57,0-19.06-3.03-26.62-12.3h53.14C65.49,74.22,54.9,78.56,45.12,78.56z M45.32,11.6c-19.77,0-32.67,16.24-32.67,31.36
				c0,8.67,2.12,13.01,4.44,17.14c2.92-7.87,8.77-23.5,8.77-23.5s2.72-1.41,2.72-1.21l3.93-9.98l2.52-1.31l3.13-6.66l6.86,1.11
				l13.92,7.77l15.63,4.34C70.53,20.37,59.14,11.6,45.32,11.6z"/>
			<path class="st0" d="M299.09,66.25v-1.51h0.3c0.66,0,1.36-0.15,1.82-0.5c0.4-0.35,0.65-0.71,0.65-2.52V36.91
				c0-0.71,0-2.27-0.76-3.02c-0.45-0.46-1.31-0.66-1.86-0.66h-0.91v-1.51l9.68-0.76v30.76c0,1.66,0.25,2.17,0.66,2.52
				c0.45,0.35,1.31,0.5,2.27,0.5h0.4v1.51H299.09z M268.49,38.93c-2.12,0-3.83-1.71-3.83-3.83c0-2.12,1.71-3.78,3.83-3.78
				c2.12,0,3.83,1.66,3.83,3.78C272.32,37.21,270.61,38.93,268.49,38.93z M289.82,66.25c0.05,0-0.05-3.83-0.1-3.83
				c-0.4,1.97-3.43,4.54-6.81,4.54c-5.29,0-6.96-3.73-6.96-6.1c0-5.59,5.6-7.46,13.31-8.97V47.9c0-2.72-1.16-4.34-4.74-4.34
				c-2.42,0-4.49,1.46-4.79,2.32c0,0.05,0,0.05,0,0.1c0.3-0.46,0.96-0.61,1.46-0.61c1.77,0,2.98,1.01,2.98,2.77
				c0,1.36-1.41,2.87-3.38,2.87c-1.61,0-3.53-1.06-3.53-3.53c0-3.33,3.88-5.6,8.88-5.6c4.44,0,9.28,1.26,9.28,8.17v11.6
				c0,1.71,0.25,2.27,0.66,2.57c0.45,0.35,1.06,0.5,1.71,0.5h0.5v1.51C298.29,66.25,289.87,66.25,289.82,66.25z M262.39,66.25v-1.51
				h0.76c0.7,0,1.51-0.05,1.96-0.7c0.45-0.66,0.45-2.02,0.45-3.58V47.8c0-1.01,0.1-2.42-0.76-3.12c-0.5-0.45-1.46-0.5-2.37-0.5h-0.5
				v-1.56h9.83v17.85c0,1.56-0.05,2.92,0.45,3.58c0.45,0.66,1.21,0.7,1.92,0.7h0.96v1.51H262.39z M261.08,63.98
				c-1.01,2.12-2.92,2.98-5.8,2.98c-5.09,0-5.95-3.68-5.95-6.6V44.17h-4.24v-1.56h0.4c5.5,0,8.42-7.31,8.42-10.89h1.56v10.89h4.74
				v1.56h-4.64v16.94c0,1.61,0.2,3.18,1.97,3.18c0.76,0,1.26-0.35,1.61-0.91c0.96-1.36,0.91-4.08,0.91-5.9h1.86
				C261.94,60.25,261.74,62.57,261.08,63.98z M236.93,66.25v-17.6c0-3.48-1.66-3.73-3.03-3.73c-0.96,0-2.07,0.55-2.82,1.76
				c-0.66,1.11-1.01,3.12-1.01,5.09v8.72c0,2.02-0.1,3.03,0.35,3.53c0.4,0.45,0.96,0.7,2.27,0.7c0,0,0.3,0,0.71,0v1.51h-12.86v-1.51
				h0.76c1.11,0,1.82-0.25,2.22-0.7c0.45-0.5,0.35-1.51,0.35-3.53V48.36c0-1.56,0.05-2.88-0.4-3.53c-0.5-0.66-1.26-0.71-1.96-0.71
				h-0.96v-1.51h8.98l0.1,3.68h0.05c0.86-2.22,3.02-4.39,6.66-4.39c5.45,0,6.76,2.97,6.76,7.91v10.74c0,1.97-0.05,2.82,0.4,3.48
				c0.45,0.66,1.31,0.7,1.97,0.7h0.96v1.51H236.93z M204.41,53.65c0,0-0.15,2.47,0.35,5.34c0.5,2.87,1.71,5.9,5.09,5.9
				c4.69,0,6.91-4.13,6.91-6.71h1.96c0,3.38-3.28,8.77-9.73,8.77c-7.56,0-11.29-5.34-11.29-12.55c0-7.46,4.89-12.5,11.09-12.5
				c7.36,0,10.23,5.34,10.23,11.75H204.41z M187.72,66.25l-0.1-3.68c-0.45,1.56-2.72,4.39-6.61,4.39c-7.46,0-9.43-6.81-9.43-12.55
				c0-5.7,3.43-12.5,10.23-12.5c3.38,0,4.74,1.36,5.24,2.37v-7.36c0-1.31,0-2.27-0.76-3.02c-0.45-0.46-1.16-0.66-2.32-0.66
				c0,0-0.15,0-0.45,0v-1.51l9.68-0.76v30.76c0,1.66,0.25,2.17,0.66,2.52c0.46,0.35,1.31,0.5,2.22,0.5h0.66v1.51H187.72z
				 M161.51,66.25l-0.1-3.68c0,0-0.05,0.15-0.05,0c-0.6,1.92-3.18,4.39-6.6,4.39c-5.7,0-6.96-3.33-6.96-7.72V49.06
				c0-2.97-0.1-4.08-0.3-4.38c-0.15-0.25-0.4-0.56-1.71-0.56c0,0,0,0-0.35,0v-1.51h8.57V59.9c0,3.78,2.07,3.88,3.07,3.88
				c1.71,0,3.08-1.51,3.58-3.53c0.3-1.16,0.3-2.47,0.3-3.78v-7.41c0-2.07,0.05-3.78-0.4-4.29c-0.4-0.45-0.96-0.66-2.52-0.66
				c0,0-0.15,0-0.5,0v-1.51h9.58v17.95c0,1.56,0.1,2.82,0.55,3.48c0.45,0.66,1.16,0.7,1.87,0.7c0,0,0.65,0,0.91,0
				c0,0.46,0,1.51,0,1.51H161.51z M141.14,47.85c-1.76,0-2.82-1.26-2.82-2.27c0-0.35,0-0.76,0.25-1.31h-0.05
				c-2.42,2.02-2.97,9.68-2.97,12.65v3.63c0,1.56,0,2.82,0.45,3.48c0.45,0.66,1.61,0.7,2.27,0.7c0,0,2.02,0,2.27,0
				c0,0.46,0,1.51,0,1.51H124.6v-1.51c0.5,0,1.51,0,1.51,0c1.61,0,2.42-0.25,2.82-0.91c0.56-0.91,0.45-3.33,0.45-3.33v-9.23
				c0-3.02-0.1-5.29-0.45-6.1c-0.4-0.86-1.01-1.06-2.37-1.06h-0.55v-1.51h8.57l0.25,6.05h0.05c0.25-2.92,1.97-6.76,5.9-6.76
				c2.12,0,3.43,1.01,3.43,2.97C144.21,46.39,143.1,47.9,141.14,47.85z M111.74,51.28h-2.42v10.29c0,1.06,0.1,1.92,0.6,2.47
				c0.46,0.45,1.26,0.7,2.72,0.7h1.26v1.51H97.93v-1.51c0.71,0,1.41,0,1.41,0c1.21,0,2.22-0.2,2.72-0.6
				c0.5-0.46,0.76-1.21,0.76-2.57V36.71c0-1.61-0.25-2.72-1.06-3.12c-0.5-0.3-1.46-0.35-2.77-0.35h-1.06v-1.51h13.81
				c7.06,0,13.16,2.52,13.16,9.83C124.9,48.51,118.9,51.28,111.74,51.28z M289.26,53.4c-4.49,0.86-6.96,2.02-6.96,6.6
				c0,2.67,1.36,4.03,2.87,4.03c2.12,0,2.87-1.26,3.33-2.17c0.5-0.91,0.76-2.87,0.76-4.69V53.4z M208.75,43.21
				c-4.13,0-4.19,6.45-4.29,8.82h8.27C212.78,49.46,212.58,43.21,208.75,43.21z M187.07,51.78c0-2.92-0.4-7.91-4.18-7.91
				c-4.28,0-4.33,7.16-4.33,10.54c0,2.92,0.2,9.83,4.18,9.83c1.51,0,2.77-0.96,3.38-2.37c0.4-1.01,0.96-2.52,0.96-5.19V51.78z
				 M111.74,33.23h-2.42v16.39h2.42c5.6,0,6.6-3.98,6.6-8.07S117.34,33.23,111.74,33.23z"/>
		</g>
	</g>
	<rect class="st1" width="320" height="100"/>
</g>
</svg>
